{"title":"Jeene De (Tere Naal Love Ho Gaya) - Official Video - H.264 - 720","uid":6989982,"size":46780245,"categoryP":"video","categoryS":"music_videos","magnet":"?xt=urn:btih:1ff455d5937342185aee9c687eba58c695610f38&amp;dn=Jeene+De+%28Tere+Naal+Love+Ho+Gaya%29+-+Official+Video+-+H.264+-+720&amp;tr=udp%3A%2F%2Ftracker.openbittorrent.com%3A80&amp;tr=udp%3A%2F%2Fopen.demonii.com%3A1337&amp;tr=udp%3A%2F%2Ftracker.coppersurfer.tk%3A6969&amp;tr=udp%3A%2F%2Fexodus.desync.com%3A6969","seeders":1,"leechers":0,"uploader":"AbhiHKRG","files":7,"time":1327624832,"description":"COVER ::\n &lt;a href=&quot;\nhttp://i.minus.com/iKI4hJGKAK7VX.png&quot; rel=&quot;nofollow&quot; target=&quot;_NEW&quot;&gt;\nhttp://i.minus.com/iKI4hJGKAK7VX.png&lt;/a&gt;\n\n\nSCREEN ::\n &lt;a href=&quot;\nhttp://i.minus.com/iPgfozrwJyD2R.png&quot; rel=&quot;nofollow&quot; target=&quot;_NEW&quot;&gt;\nhttp://i.minus.com/iPgfozrwJyD2R.png&lt;/a&gt;\n &lt;a href=&quot;\nhttp://i.minus.com/irYmdTZjjoORU.png&quot; rel=&quot;nofollow&quot; target=&quot;_NEW&quot;&gt;\nhttp://i.minus.com/irYmdTZjjoORU.png&lt;/a&gt;\n &lt;a href=&quot;\nhttp://i.minus.com/iT6VWN6DK0Uvu.png&quot; rel=&quot;nofollow&quot; target=&quot;_NEW&quot;&gt;\nhttp://i.minus.com/iT6VWN6DK0Uvu.png&lt;/a&gt;\n &lt;a href=&quot;\nhttp://i.minus.com/ib1N2iyOaKT8wL.png&quot; rel=&quot;nofollow&quot; target=&quot;_NEW&quot;&gt;\nhttp://i.minus.com/ib1N2iyOaKT8wL.png&lt;/a&gt;\n &lt;a href=&quot;\nhttp://i.minus.com/ibiUGtK9CDWpM5.jpg&quot; rel=&quot;nofollow&quot; target=&quot;_NEW&quot;&gt;\nhttp://i.minus.com/ibiUGtK9CDWpM5.jpg&lt;/a&gt;\n\n\nGeneral Info ::\nFormat                           : AVI\nFormat/Info                      : Audio Video Interleave\nFile size                        : 44.6 MiB\nDuration                         : 2mn 27s\nOverall bit rate                 : 2 529 Kbps\n\n\nVideo Info ::\nID                               : 0\nFormat                           : AVC\nFormat/Info                      : Advanced Video Codec\nFormat profile                   : &lt;a class=&quot;__cf_email__&quot; href=&quot;/cdn-cgi/l/email-protection&quot; data-cfemail=&quot;6921000e0129255c4758&quot;&gt;[email&amp;#160;protected]&lt;/a&gt;&lt;script cf-hash='f9e31' type=&quot;text/javascript&quot;&gt;\n/* &lt;![CDATA[ */!function(){try{var t=&quot;currentScript&quot;in document?document.currentScript:function(){for(var t=document.getElementsByTagName(&quot;script&quot;),e=t.length;e--;)if(t[e].getAttribute(&quot;cf-hash&quot;))return t[e]}();if(t&amp;&amp;t.previousSibling){var e,r,n,i,c=t.previousSibling,a=c.getAttribute(&quot;data-cfemail&quot;);if(a){for(e=&quot;&quot;,r=parseInt(a.substr(0,2),16),n=2;a.length-n;n+=2)i=parseInt(a.substr(n,2),16)^r,e+=String.fromCharCode(i);e=document.createTextNode(e),c.parentNode.replaceChild(e,c)}}}catch(u){}}();/* ]]&gt; */&lt;/script&gt;\nFormat settings, CABAC           : Yes\nFormat settings, ReFrames        : 2 frames\nCodec ID                         : H264\nDuration                         : 10s 0ms\nBit rate                         : 2 198 Kbps\nWidth                            : 1 280 pixels\nHeight                           : 544 pixels\nDisplay aspect ratio             : 2.35:1\nFrame rate                       : 30.000 fps\nColor space                      : YUV\nChroma subsampling               : 4:2:0\nBit depth                        : 8 bits\nScan type                        : Progressive\nBits/(Pixel*Frame)               : 0.105\nStream size                      : 38.8 MiB (87%)\n\n\nAudio Info ::\nID                               : 1\nFormat                           : MPEG Audio\nFormat version                   : Version 1\nFormat profile                   : Layer 3\nCodec ID                         : 55\nCodec ID/Hint                    : MP3\nDuration                         : 2mn 27s\nBit rate mode                    : Constant\nBit rate                         : 320 Kbps\nChannel(s)                       : 2 channels\nSampling rate                    : 48.0 KHz\nCompression mode                 : Lossy\nStream size                      : 5.65 MiB (13%)","torrent":{"xt":"urn:btih:1ff455d5937342185aee9c687eba58c695610f38","amp;dn":"Jeene+De+%28Tere+Naal+Love+Ho+Gaya%29+-+Official+Video+-+H.264+-+720","amp;tr":["udp%3A%2F%2Ftracker.openbittorrent.com%3A80","udp%3A%2F%2Fopen.demonii.com%3A1337","udp%3A%2F%2Ftracker.coppersurfer.tk%3A6969","udp%3A%2F%2Fexodus.desync.com%3A6969"],"infoHash":"1ff455d5937342185aee9c687eba58c695610f38","infoHashBuffer":{"type":"Buffer","data":[31,244,85,213,147,115,66,24,90,238,156,104,126,186,88,198,149,97,15,56]},"announce":[],"urlList":[]}}